<svg width="42" height="39" viewBox="0 0 42 39" fill="none" xmlns="http://www.w3.org/2000/svg">
<path d="M22.5568 15.875H17.5795C17.4886 15.2311 17.303 14.6591 17.0227 14.1591C16.7424 13.6515 16.3826 13.2197 15.9432 12.8636C15.5038 12.5076 14.9962 12.2348 14.4205 12.0455C13.8523 11.8561 13.2348 11.7614 12.5682 11.7614C11.3636 11.7614 10.3144 12.0606 9.42045 12.6591C8.52652 13.25 7.83333 14.1136 7.34091 15.25C6.84849 16.3788 6.60227 17.75 6.60227 19.3636C6.60227 21.0227 6.84849 22.4167 7.34091 23.5455C7.84091 24.6742 8.53788 25.5265 9.43182 26.1023C10.3258 26.678 11.3598 26.9659 12.5341 26.9659C13.1932 26.9659 13.803 26.8788 14.3636 26.7045C14.9318 26.5303 15.4356 26.2765 15.875 25.9432C16.3144 25.6023 16.678 25.1894 16.9659 24.7045C17.2614 24.2197 17.4659 23.6667 17.5795 23.0455L22.5568 23.0682C22.428 24.1364 22.1061 25.1667 21.5909 26.1591C21.0833 27.1439 20.3977 28.0265 19.5341 28.8068C18.678 29.5795 17.6553 30.1932 16.4659 30.6477C15.2841 31.0947 13.947 31.3182 12.4545 31.3182C10.3788 31.3182 8.52273 30.8485 6.88636 29.9091C5.25758 28.9697 3.9697 27.6098 3.02273 25.8295C2.08333 24.0492 1.61364 21.8939 1.61364 19.3636C1.61364 16.8258 2.09091 14.6667 3.04545 12.8864C4 11.1061 5.29545 9.75 6.93182 8.81818C8.56818 7.87879 10.4091 7.40909 12.4545 7.40909C13.803 7.40909 15.053 7.59848 16.2045 7.97727C17.3636 8.35606 18.3902 8.90909 19.2841 9.63636C20.178 10.3561 20.9053 11.2386 21.4659 12.2841C22.0341 13.3295 22.3977 14.5265 22.5568 15.875ZM22.5652 31V7.72727H31.747C33.5122 7.72727 35.016 8.06439 36.2584 8.73864C37.5008 9.4053 38.4478 10.3333 39.0993 11.5227C39.7584 12.7045 40.088 14.0682 40.088 15.6136C40.088 17.1591 39.7546 18.5227 39.088 19.7045C38.4213 20.8864 37.4554 21.8068 36.1902 22.4659C34.9327 23.125 33.4099 23.4545 31.622 23.4545H25.7698V19.5114H30.8266C31.7736 19.5114 32.5539 19.3485 33.1675 19.0227C33.7887 18.6894 34.2508 18.2311 34.5539 17.6477C34.8645 17.0568 35.0198 16.3788 35.0198 15.6136C35.0198 14.8409 34.8645 14.1667 34.5539 13.5909C34.2508 13.0076 33.7887 12.5568 33.1675 12.2386C32.5463 11.9129 31.7584 11.75 30.8039 11.75H27.4857V31H22.5652Z" fill="black"/>
</svg>
