<svg width="127" height="39" viewBox="0 0 127 39" fill="none" xmlns="http://www.w3.org/2000/svg">
<path d="M22.5568 15.875H17.5795C17.4886 15.2311 17.303 14.6591 17.0227 14.1591C16.7424 13.6515 16.3826 13.2197 15.9432 12.8636C15.5038 12.5076 14.9962 12.2348 14.4205 12.0455C13.8523 11.8561 13.2348 11.7614 12.5682 11.7614C11.3636 11.7614 10.3144 12.0606 9.42045 12.6591C8.52652 13.25 7.83333 14.1136 7.34091 15.25C6.84849 16.3788 6.60227 17.75 6.60227 19.3636C6.60227 21.0227 6.84849 22.4167 7.34091 23.5455C7.84091 24.6742 8.53788 25.5265 9.43182 26.1023C10.3258 26.678 11.3598 26.9659 12.5341 26.9659C13.1932 26.9659 13.803 26.8788 14.3636 26.7045C14.9318 26.5303 15.4356 26.2765 15.875 25.9432C16.3144 25.6023 16.678 25.1894 16.9659 24.7045C17.2614 24.2197 17.4659 23.6667 17.5795 23.0455L22.5568 23.0682C22.428 24.1364 22.1061 25.1667 21.5909 26.1591C21.0833 27.1439 20.3977 28.0265 19.5341 28.8068C18.678 29.5795 17.6553 30.1932 16.4659 30.6477C15.2841 31.0947 13.947 31.3182 12.4545 31.3182C10.3788 31.3182 8.52273 30.8485 6.88636 29.9091C5.25758 28.9697 3.9697 27.6098 3.02273 25.8295C2.08333 24.0492 1.61364 21.8939 1.61364 19.3636C1.61364 16.8258 2.09091 14.6667 3.04545 12.8864C4 11.1061 5.29545 9.75 6.93182 8.81818C8.56818 7.87879 10.4091 7.40909 12.4545 7.40909C13.803 7.40909 15.053 7.59848 16.2045 7.97727C17.3636 8.35606 18.3902 8.90909 19.2841 9.63636C20.178 10.3561 20.9053 11.2386 21.4659 12.2841C22.0341 13.3295 22.3977 14.5265 22.5568 15.875ZM27.3152 7.72727V31H22.4743V7.72727H27.3152ZM35.6276 31.3409C33.8322 31.3409 32.2867 30.9773 30.9912 30.25C29.7034 29.5152 28.7109 28.4773 28.014 27.1364C27.317 25.7879 26.9685 24.1932 26.9685 22.3523C26.9685 20.5568 27.317 18.9811 28.014 17.625C28.7109 16.2689 29.692 15.2121 30.9572 14.4545C32.2299 13.697 33.7223 13.3182 35.4344 13.3182C36.5859 13.3182 37.6579 13.5038 38.6503 13.875C39.6503 14.2386 40.5216 14.7879 41.264 15.5227C42.014 16.2576 42.5973 17.1818 43.014 18.2955C43.4306 19.4015 43.639 20.697 43.639 22.1818V23.5114H28.9003V20.5114H39.0822C39.0822 19.8144 38.9306 19.197 38.6276 18.6591C38.3246 18.1212 37.9041 17.7008 37.3662 17.3977C36.8359 17.0871 36.2185 16.9318 35.514 16.9318C34.7791 16.9318 34.1276 17.1023 33.5594 17.4432C32.9988 17.7765 32.5594 18.2273 32.2412 18.7955C31.9231 19.3561 31.7602 19.9811 31.7526 20.6705V23.5227C31.7526 24.3864 31.9117 25.1326 32.2299 25.7614C32.5556 26.3902 33.014 26.875 33.6049 27.2159C34.1958 27.5568 34.8966 27.7273 35.7072 27.7273C36.245 27.7273 36.7375 27.6515 37.1844 27.5C37.6314 27.3485 38.014 27.1212 38.3322 26.8182C38.6503 26.5152 38.8928 26.1439 39.0594 25.7045L43.5367 26C43.3094 27.0758 42.8435 28.0152 42.139 28.8182C41.442 29.6136 40.5405 30.2348 39.4344 30.6818C38.3359 31.1212 37.067 31.3409 35.6276 31.3409ZM48.2553 31.3295C47.1417 31.3295 46.1493 31.1364 45.2781 30.75C44.4069 30.3561 43.7175 29.7765 43.2099 29.0114C42.7099 28.2386 42.4599 27.2765 42.4599 26.125C42.4599 25.1553 42.6379 24.3409 42.994 23.6818C43.35 23.0227 43.8349 22.4924 44.4485 22.0909C45.0622 21.6894 45.7591 21.3864 46.5394 21.1818C47.3273 20.9773 48.1531 20.8333 49.0167 20.75C50.0319 20.6439 50.85 20.5455 51.4712 20.4545C52.0925 20.3561 52.5432 20.2121 52.8235 20.0227C53.1038 19.8333 53.244 19.553 53.244 19.1818V19.1136C53.244 18.3939 53.0167 17.8371 52.5622 17.4432C52.1152 17.0492 51.4788 16.8523 50.6531 16.8523C49.7819 16.8523 49.0887 17.0455 48.5735 17.4318C48.0584 17.8106 47.7175 18.2879 47.5508 18.8636L43.0735 18.5C43.3008 17.4394 43.7478 16.5227 44.4144 15.75C45.0811 14.9697 45.9409 14.3712 46.994 13.9545C48.0546 13.5303 49.2819 13.3182 50.6758 13.3182C51.6455 13.3182 52.5735 13.4318 53.4599 13.6591C54.3538 13.8864 55.1455 14.2386 55.8349 14.7159C56.5319 15.1932 57.0811 15.8068 57.4826 16.5568C57.8841 17.2992 58.0849 18.1894 58.0849 19.2273V31H53.494V28.5795H53.3576C53.0773 29.125 52.7023 29.6061 52.2326 30.0227C51.7629 30.4318 51.1985 30.7538 50.5394 30.9886C49.8803 31.2159 49.119 31.3295 48.2553 31.3295ZM49.6417 27.9886C50.3538 27.9886 50.9826 27.8485 51.5281 27.5682C52.0735 27.2803 52.5016 26.8939 52.8122 26.4091C53.1228 25.9242 53.2781 25.375 53.2781 24.7614V22.9091C53.1266 23.0076 52.9182 23.0985 52.6531 23.1818C52.3955 23.2576 52.1038 23.3295 51.7781 23.3977C51.4523 23.4583 51.1266 23.5152 50.8008 23.5682C50.475 23.6136 50.1796 23.6553 49.9144 23.6932C49.3462 23.7765 48.85 23.9091 48.4258 24.0909C48.0016 24.2727 47.672 24.5189 47.4372 24.8295C47.2023 25.1326 47.0849 25.5114 47.0849 25.9659C47.0849 26.625 47.3235 27.1288 47.8008 27.4773C48.2856 27.8182 48.8993 27.9886 49.6417 27.9886ZM58.3206 31V13.5455H63.0137V16.5909H63.1956C63.5137 15.5076 64.0478 14.6894 64.7978 14.1364C65.5478 13.5758 66.4115 13.2955 67.3887 13.2955C67.6312 13.2955 67.8925 13.3106 68.1728 13.3409C68.4531 13.3712 68.6994 13.4129 68.9115 13.4659V17.7614C68.6842 17.6932 68.3698 17.6326 67.9683 17.5795C67.5668 17.5265 67.1994 17.5 66.866 17.5C66.1539 17.5 65.5175 17.6553 64.9569 17.9659C64.4039 18.2689 63.9645 18.6932 63.6387 19.2386C63.3206 19.7841 63.1615 20.4129 63.1615 21.125V31H58.3206ZM67.9852 31V7.72727H77.167C78.9322 7.72727 80.436 8.06439 81.6784 8.73864C82.9208 9.4053 83.8678 10.3333 84.5193 11.5227C85.1784 12.7045 85.508 14.0682 85.508 15.6136C85.508 17.1591 85.1746 18.5227 84.508 19.7045C83.8413 20.8864 82.8754 21.8068 81.6102 22.4659C80.3527 23.125 78.8299 23.4545 77.042 23.4545H71.1898V19.5114H76.2466C77.1936 19.5114 77.9739 19.3485 78.5875 19.0227C79.2087 18.6894 79.6708 18.2311 79.9739 17.6477C80.2845 17.0568 80.4398 16.3788 80.4398 15.6136C80.4398 14.8409 80.2845 14.1667 79.9739 13.5909C79.6708 13.0076 79.2087 12.5568 78.5875 12.2386C77.9663 11.9129 77.1784 11.75 76.2239 11.75H72.9057V31H67.9852ZM89.6016 31.3295C88.488 31.3295 87.4955 31.1364 86.6243 30.75C85.7531 30.3561 85.0637 29.7765 84.5561 29.0114C84.0561 28.2386 83.8061 27.2765 83.8061 26.125C83.8061 25.1553 83.9842 24.3409 84.3402 23.6818C84.6963 23.0227 85.1811 22.4924 85.7948 22.0909C86.4084 21.6894 87.1054 21.3864 87.8857 21.1818C88.6736 20.9773 89.4993 20.8333 90.363 20.75C91.3781 20.6439 92.1963 20.5455 92.8175 20.4545C93.4387 20.3561 93.8895 20.2121 94.1698 20.0227C94.4501 19.8333 94.5902 19.553 94.5902 19.1818V19.1136C94.5902 18.3939 94.363 17.8371 93.9084 17.4432C93.4614 17.0492 92.8251 16.8523 91.9993 16.8523C91.1281 16.8523 90.4349 17.0455 89.9198 17.4318C89.4046 17.8106 89.0637 18.2879 88.897 18.8636L84.4198 18.5C84.647 17.4394 85.094 16.5227 85.7607 15.75C86.4273 14.9697 87.2872 14.3712 88.3402 13.9545C89.4008 13.5303 90.6281 13.3182 92.022 13.3182C92.9917 13.3182 93.9198 13.4318 94.8061 13.6591C95.7001 13.8864 96.4917 14.2386 97.1811 14.7159C97.8781 15.1932 98.4273 15.8068 98.8289 16.5568C99.2304 17.2992 99.4311 18.1894 99.4311 19.2273V31H94.8402V28.5795H94.7039C94.4236 29.125 94.0486 29.6061 93.5789 30.0227C93.1092 30.4318 92.5448 30.7538 91.8857 30.9886C91.2266 31.2159 90.4652 31.3295 89.6016 31.3295ZM90.988 27.9886C91.7001 27.9886 92.3289 27.8485 92.8743 27.5682C93.4198 27.2803 93.8478 26.8939 94.1584 26.4091C94.469 25.9242 94.6243 25.375 94.6243 24.7614V22.9091C94.4728 23.0076 94.2645 23.0985 93.9993 23.1818C93.7417 23.2576 93.4501 23.3295 93.1243 23.3977C92.7986 23.4583 92.4728 23.5152 92.147 23.5682C91.8213 23.6136 91.5258 23.6553 91.2607 23.6932C90.6925 23.7765 90.1963 23.9091 89.772 24.0909C89.3478 24.2727 89.0183 24.5189 88.7834 24.8295C88.5486 25.1326 88.4311 25.5114 88.4311 25.9659C88.4311 26.625 88.6698 27.1288 89.147 27.4773C89.6319 27.8182 90.2455 27.9886 90.988 27.9886ZM108.951 13.5455V17.1818H98.4395V13.5455H108.951ZM100.826 9.36364H105.667V25.6364C105.667 26.0833 105.735 26.4318 105.871 26.6818C106.008 26.9242 106.197 27.0947 106.44 27.1932C106.69 27.2917 106.977 27.3409 107.303 27.3409C107.53 27.3409 107.758 27.322 107.985 27.2841C108.212 27.2386 108.387 27.2045 108.508 27.1818L109.269 30.7841C109.027 30.8598 108.686 30.947 108.246 31.0455C107.807 31.1515 107.273 31.2159 106.644 31.2386C105.477 31.2841 104.455 31.1288 103.576 30.7727C102.705 30.4167 102.027 29.8636 101.542 29.1136C101.057 28.3636 100.818 27.4167 100.826 26.2727V9.36364ZM113.8 20.9091V31H108.959V7.72727H113.664V16.625H113.868C114.262 15.5947 114.899 14.7879 115.777 14.2045C116.656 13.6136 117.759 13.3182 119.084 13.3182C120.296 13.3182 121.353 13.5833 122.255 14.1136C123.164 14.6364 123.868 15.3902 124.368 16.375C124.876 17.3523 125.126 18.5227 125.118 19.8864V31H120.277V20.75C120.285 19.6742 120.012 18.8371 119.459 18.2386C118.914 17.6402 118.149 17.3409 117.164 17.3409C116.505 17.3409 115.921 17.4811 115.414 17.7614C114.914 18.0417 114.52 18.4508 114.232 18.9886C113.952 19.5189 113.808 20.1591 113.8 20.9091Z" fill="black"/>
</svg>
